<svg width="104" height="101" viewBox="0 0 104 101" fill="none" xmlns="http://www.w3.org/2000/svg">
<path fill-rule="evenodd" clip-rule="evenodd" d="M103.932 73.52C103.612 72.33 102.212 72.29 101.712 71.62C101.561 71.2091 101.453 70.7835 101.392 70.35C101.102 69.54 101.602 66.59 100.762 65.92C99.9216 65.25 98.6416 65.7 97.2716 65.92C95.0316 66.27 92.8317 67.02 90.6117 67.5C89.9417 67.65 87.2117 68.5 86.8117 68.14C86.4117 67.78 86.8117 61.76 86.8117 59.26C86.8117 55.55 86.5617 52.57 86.4917 51.02C86.1617 43.43 86.7617 39.23 86.4917 32.96C86.1317 24.46 86.2217 15.96 85.4917 7.29004C85.3117 4.90004 85.4917 2.54002 85.1817 1.58002C84.9717 0.960017 84.3417 0 83.5917 0C83.3917 0 83.2316 0.320007 83.2816 0.320007C83.1564 0.30392 83.0292 0.324708 82.9155 0.379761C82.8019 0.434814 82.7066 0.521746 82.6416 0.630005C82.7016 0.550005 81.7616 1.79002 81.3716 1.90002C81.3716 1.90002 80.1417 1.62002 79.4717 1.58002C77.454 1.56689 75.4412 1.78159 73.4717 2.22003C60.7017 4.09003 40.7017 2.99999 28.4717 3.48999C27.6017 3.48999 26.2117 3.53999 24.9817 3.48999C23.7517 3.43999 22.3817 2.99004 21.8217 3.17004C20.5717 3.56004 19.8216 6.17005 18.6516 7.61005C17.6516 8.80005 16.0716 10.18 14.5316 11.73C13.2216 13.04 11.6117 14.44 10.0917 15.85C8.57169 17.26 5.34166 20.33 3.44166 21.85C3.10166 22.11 2.85166 22.92 2.44166 23.11C2.03166 23.3 1.87166 22.8 1.81166 22.8C0.381659 22.64 0.711639 28.58 0.541639 31.04C-0.458361 45.59 0.0917075 58.53 0.861708 71.6C1.31171 79.25 1.99171 86.04 1.49171 93.47C1.49171 93.97 1.49171 95.94 1.49171 96C1.35171 97.63 0.491708 98.13 0.861708 98.85C1.75171 100.57 9.26162 100.79 12.2716 100.76C17.1516 100.71 22.5317 100.01 28.1117 99.76C30.5217 99.67 32.9616 99.99 35.4016 100.07C46.5416 100.47 60.8516 99.54 66.1416 100.07C66.4216 100.07 66.7516 99.76 66.7816 99.76C68.2016 99.76 69.5317 100.11 70.5817 100.07C71.0017 100.07 71.0117 99.72 71.5817 99.76C73.4917 99.88 76.3716 100.76 77.9216 100.39C78.4341 100.189 78.8758 99.841 79.1917 99.39C79.5517 99.02 79.8917 98.28 80.1917 98.12C80.7717 97.75 81.8017 97.94 82.0917 97.8C82.7578 97.4341 83.3058 96.8861 83.6716 96.22C84.1976 95.1207 84.5356 93.9411 84.6716 92.73C84.9216 91.67 84.8916 89.62 85.6216 88.93C85.9616 88.62 87.6216 88.53 88.7916 88.3C91.2092 87.8578 93.5611 87.1119 95.7916 86.08C98.1616 84.99 100.732 83.87 102.132 82.28C103.532 80.69 103.032 79.98 103.402 77.21C103.512 75.44 104.212 74.73 103.932 73.52ZM9.17164 21.23C10.7716 19.7 13.4016 17.5 15.1716 15.85C17.7694 13.4795 20.2049 10.9371 22.4617 8.23999C22.6717 7.98999 22.6917 7.67005 23.0917 7.61005C23.0917 7.61005 23.7016 7.02004 24.0416 7.29004C24.8316 7.90004 25.0416 11.66 25.6316 14.89C25.8216 15.97 26.3716 17.36 26.6316 18.7C26.8716 20.23 27.2017 22.56 26.9517 22.82C26.9517 22.76 23.3317 22.52 22.1917 22.5C17.7217 22.44 16.5216 22.82 12.0516 22.82C10.7516 22.82 7.5616 23.05 7.6216 22.5C7.5716 22.33 8.78162 21.58 9.14161 21.23H9.17164ZM80.7916 13.31C80.0116 27.83 80.4717 42.44 80.4717 57.99C80.4717 62.89 80.4717 69.23 79.8417 70.04C79.8417 70.04 77.6816 70.62 76.0416 70.99C74.9316 71.23 73.4717 71.32 72.2317 71.62C71.5717 71.78 70.9017 71.98 70.2317 72.19C71.0912 70.6732 71.4417 68.9207 71.2317 67.19C70.8517 65.04 67.6317 63.54 65.8517 64.34C63.7417 65.34 64.1517 67.49 64.8517 70.34C65.0205 71.5216 65.4887 72.6404 66.2117 73.59C65.9417 73.68 65.7017 73.77 65.4917 73.83C61.4317 75.07 58.6016 75.74 55.0316 77C54.4816 77.19 54.0317 77.39 53.4517 77.63C50.1417 78.91 44.5117 79.42 40.4517 80.17C39.5617 80.33 38.5317 80.64 37.6017 80.8C35.6017 81.15 33.9416 81.44 31.9016 81.75C30.9916 81.89 29.6516 81.87 29.0416 82.07C28.0547 82.4853 27.1856 83.138 26.5116 83.97C25.8816 84.6 25.7917 85.55 24.6117 86.19C23.8817 86.58 22.1717 86.47 20.8117 87.19C19.4517 87.91 18.2216 88.19 18.9016 89.41C19.1016 89.75 19.1916 90.23 19.5416 90.41C20.7416 90.84 22.4716 90.11 24.2916 90.41C25.5816 90.62 26.6016 91.51 27.7816 91.68C28.9616 91.85 31.4717 91.93 32.2117 91.36C32.8707 90.728 33.6186 90.1957 34.4317 89.78C35.0517 89.56 37.3317 89.41 38.2417 89.14C40.1186 88.6861 42.0224 88.3521 43.9417 88.14C47.2117 87.8 50.7117 87.72 54.0817 87.19C57.6717 86.63 60.7317 86.3 63.5917 85.61C65.1017 85.23 66.5916 85 68.0216 84.61C70.4416 84.04 71.2917 83.43 74.3617 83.35C75.626 83.18 76.9073 83.18 78.1716 83.35C78.5316 83.42 79.1017 83.2 79.4317 83.35C79.6848 83.6565 79.8722 84.0117 79.9823 84.3936C80.0924 84.7755 80.1228 85.1759 80.0717 85.57C80.0717 85.72 79.4917 85.76 79.4317 85.88C79.3717 86 79.5217 86.45 79.4317 86.52C77.9017 87.72 72.1016 86.4 72.1416 89.05C72.1416 90.61 73.4017 90.61 75.3117 90.63C75.9417 90.63 78.3116 89.22 79.1216 90C78.7116 89.6 79.2117 95.33 78.8017 95.71C78.8017 95.71 72.9617 95.1 72.4617 95.07C66.9017 94.82 56.7516 95.4 53.1316 95.39C41.8216 95.39 28.9917 94.73 17.3217 95.71C14.2017 95.97 11.8117 96.02 8.45167 96.02C7.62167 96.02 5.55169 96.02 5.59169 96.02C5.48169 95.91 5.85163 90.6 5.91163 89.37C6.03163 86.87 6.2717 84.79 6.2317 83.03C6.1117 78.18 5.49163 73.49 5.28163 70.35C4.96163 65.6 4.83161 61.28 4.64161 57.35C4.22161 48.35 4.37161 41.19 4.01161 32.95C4.01161 32.43 2.9516 25.32 3.3816 25.03C3.8116 24.74 3.90161 25.38 4.64161 25.98C6.09161 27.13 6.64162 26.42 9.40162 26.61C13.1316 26.87 18.8617 26.36 24.6117 26.61C27.2917 26.73 31.1016 27.26 31.9016 26.29C32.7016 25.32 31.2616 21.59 30.9016 19.29C30.5117 15.6606 29.8736 12.0622 28.9917 8.52002C28.9917 8.40002 28.9417 7.24002 28.6817 7.52002C29.0417 7.06002 32.1916 7.20001 32.8016 7.20001C43.1016 7.13001 53.4016 7.72001 63.8016 7.20001C69.9816 6.89001 75.6517 5.11004 79.9717 4.98004C80.1806 4.95009 80.3928 4.95009 80.6017 4.98004C80.6017 4.98004 81.2117 4.62999 81.2317 5.29999C81.5017 8.02999 80.9316 10.56 80.7616 13.33L80.7916 13.31ZM83.9617 67.82C83.8617 68.2 83.2916 67.56 83.6416 66.23C83.8116 65.47 83.9917 67.6 83.9317 67.82H83.9617ZM93.1516 83.35C92.0241 83.8633 90.857 84.2847 89.6616 84.61C88.4166 84.9362 87.1449 85.1504 85.8617 85.25C85.7236 83.9745 85.8322 82.6844 86.1817 81.45C86.4317 81.05 87.7116 81.15 88.4016 80.81C88.5416 80.74 88.6017 80.23 88.7117 80.18C90.1717 79.52 93.1017 78.71 94.7117 77.96C95.7117 77.48 96.3817 77.25 97.5717 76.69C97.6917 76.63 97.8717 76.24 98.2017 76.37C98.2017 76.37 98.2017 76.09 98.2017 76.06C100.272 80.01 96.6816 81.83 93.1216 83.33L93.1516 83.35ZM59.2417 25.04C63.7517 24.14 63.9816 12.43 57.6616 13.95C57.1667 14.0662 56.7067 14.2994 56.3204 14.6299C55.9342 14.9605 55.6329 15.3789 55.4417 15.85C55.4417 15.96 54.8716 16.02 54.8016 16.16C54.7316 16.3 54.8916 16.84 54.8016 17.11C54.7116 17.38 54.2116 17.58 54.1716 17.75C53.1616 22.25 55.4917 25.77 59.2117 25.04H59.2417ZM52.8716 39.33C52.9616 39.33 53.4016 40.17 53.5116 40.28C55.0816 41.82 58.6116 39.99 60.7916 39.96C62.0316 39.96 63.2917 40.51 63.9617 40.28C65.8917 39.6 66.2616 37.08 65.8716 34.28C65.8648 32.4549 65.1792 30.6976 63.9481 29.3501C62.7171 28.0026 61.0288 27.1613 59.2117 26.99C57.623 26.7916 56.0111 26.8968 54.4617 27.3C53.8032 27.4299 53.1645 27.6451 52.5617 27.94C51.1317 29 47.3116 37.05 50.0216 39.66C50.9316 40.49 52.5316 39.2 52.8716 39.33ZM61.7516 47.57C59.6916 47.64 57.9516 47.33 56.0416 47.25C51.7416 47.06 46.2316 47.36 41.7816 47.57C39.0816 47.69 36.2917 48.27 33.8617 48.52C32.8617 48.61 31.8616 48.46 31.0116 48.52C29.5448 48.7643 28.0582 48.868 26.5717 48.83C25.4517 48.65 24.2316 47.52 23.4016 47.57C22.1516 47.63 20.5617 49.9 19.6017 49.47C19.0017 49.2 19.4717 45.34 16.4317 45.03C16.1117 45.03 15.8716 45.34 15.7916 45.35C13.7316 45.48 11.3217 47.04 10.7217 48.52C9.83169 50.73 11.6316 51.52 13.2616 51.05C14.2616 50.79 15.0617 49.62 15.4817 49.78C15.5068 50.203 15.5068 50.627 15.4817 51.05C15.4817 51.16 16.0017 51.82 16.1117 52C17.2217 53.83 19.4216 54.1 21.5016 53.27C22.3116 52.95 23.0017 52.08 23.7217 52C24.1217 52 24.4017 52.56 24.7217 52.64C25.2476 52.68 25.7757 52.68 26.3016 52.64C29.6816 52.96 33.7017 52.08 37.7117 51.69C40.6217 51.4 43.7116 51.84 46.2716 51.69C47.1316 51.64 48.7317 51.15 50.0717 51.05C56.6017 50.56 68.1316 53.05 68.1316 49.15C68.0816 46.19 63.7016 47.47 61.7516 47.54V47.57ZM50.6516 57.07C49.5316 56.76 48.2216 57.39 47.1716 57.39C45.7516 57.39 44.2917 57.11 42.7317 57.07C39.9317 57 36.9117 57.57 34.8117 57.39C33.6917 57.29 32.1317 56.82 31.3217 56.76C29.8387 56.7297 28.3559 56.8335 26.8916 57.07C26.4416 57.15 25.9916 57.57 25.3016 57.71C24.6116 57.85 23.6917 57.54 23.0817 57.71C22.2217 57.94 21.7416 58.63 20.8716 58.66C20.1716 58.66 18.9317 57.92 18.3317 58.02C16.8317 58.28 15.6116 60.85 14.5316 59.02C14.0316 58.15 13.4317 57.02 12.3117 57.11C11.8122 57.2531 11.3658 57.5397 11.028 57.9344C10.6902 58.3292 10.4759 58.8145 10.4116 59.33C10.5116 60.12 11.6717 60.08 11.9917 60.33C12.3117 60.58 12.1317 60.83 12.3117 60.97C14.1417 62.33 14.6717 62.58 16.4317 61.6C18.1917 60.62 17.5716 60.74 19.2816 61.28C19.7817 61.502 20.3245 61.6113 20.8716 61.6C22.1416 61.6 22.8717 60.6 23.7217 60.33C24.3317 60.15 25.2017 60.49 25.9417 60.33C26.0717 60.33 26.6517 59.79 26.9417 59.7C27.4473 59.5076 27.981 59.3994 28.5216 59.38C30.0087 59.3353 31.4964 59.4425 32.9617 59.7C33.5826 59.9458 34.217 60.1562 34.8617 60.33C37.1317 60.53 39.3717 59.91 41.2017 60.02C42.5317 60.09 46.2817 61.12 47.8517 60.97C48.0911 60.9458 48.3323 60.9458 48.5717 60.97C48.959 60.8558 49.3531 60.7656 49.7516 60.7C51.5116 60.34 52.5317 60.61 52.6117 59.12C52.4612 58.6489 52.2069 58.2176 51.8677 57.8576C51.5285 57.4977 51.113 57.2183 50.6516 57.04V57.07ZM39.9317 66.55C38.5017 66.55 37.1116 66.55 36.7616 66.55C34.9116 66.73 34.5017 67.11 32.9617 67.18C32.1817 67.18 30.8716 66.93 29.7916 66.87C25.6216 66.61 12.0217 65.99 12.3617 69.72C12.5717 72.06 15.8317 71.37 18.0617 71.3C22.8717 71.17 29.8716 71.6 33.9116 70.99C35.6316 70.73 36.5416 70.09 37.3916 70.04C38.2416 69.99 39.2117 70.34 40.5617 70.35C43.6417 70.35 47.3517 70.21 47.2217 68.14C47.0017 65.56 42.6217 66.61 39.9317 66.55Z" fill="#061522"/>
</svg>
